<svg xmlns="http://www.w3.org/2000/svg" xmlns:xlink="http://www.w3.org/1999/xlink" width="205" height="405" viewBox="0 0 205 405">
  <defs>
    <clipPath id="clip-path">
      <rect id="Rectangle_8800" data-name="Rectangle 8800" width="205" height="405" transform="translate(-7294 10248)" fill="#fff"/>
    </clipPath>
    <filter id="phone-shape" x="-7.486" y="-10.386" width="221.065" height="418.919" filterUnits="userSpaceOnUse">
      <feOffset dx="5" dy="5" input="SourceAlpha"/>
      <feGaussianBlur stdDeviation="5" result="blur"/>
      <feFlood flood-opacity="0.149"/>
      <feComposite operator="in" in2="blur"/>
      <feComposite in="SourceGraphic"/>
    </filter>
  </defs>
  <g id="Mask_Group_94" data-name="Mask Group 94" transform="translate(7294 -10248)" clip-path="url(#clip-path)">
    <g id="Group_11049" data-name="Group 11049" transform="translate(-8088 10103.055)">
      <g transform="matrix(1, 0, 0, 1, 794, 144.95)" filter="url(#phone-shape)">
        <path id="phone-shape-2" data-name="phone-shape" d="M30.982,388.064h-.05l-.2,0-.332-.008h-.06c-1.216-.029-1.938-.045-2.27-.051a50.049,50.049,0,0,1-9.432-.961,25.274,25.274,0,0,1-7.195-2.579,17.84,17.84,0,0,1-4.5-3.586,18.554,18.554,0,0,1-3.106-4.815,25.65,25.65,0,0,1-1.8-6c-.061-.343-.117-.688-.166-1.025H4.154a35.191,35.191,0,0,1-.422-3.88H1.5c-.034-.718-.05-1.466-.05-2.224v-196.6H1.188A1.188,1.188,0,0,1,0,165.146V119.027a1.188,1.188,0,0,1,1.188-1.188h.267V104.746H3.637v-3.88H1.455V25.985c0-.906.025-1.817.075-2.709h2.2a35.12,35.12,0,0,1,.422-3.88H1.942A27.809,27.809,0,0,1,3.137,14.6,20.754,20.754,0,0,1,5.09,10.5,17.585,17.585,0,0,1,7.845,7.114a18.1,18.1,0,0,1,3.6-2.652,25.282,25.282,0,0,1,7.195-2.579,49.912,49.912,0,0,1,9.432-.96C28.449.915,29.3.9,30.945.857h.094C39.955.643,67.084,0,95.533,0c28.5,0,55.635.645,64.551.856h.039l.3.007.219.005h.013c1.2.028,1.994.047,2.348.052a49.9,49.9,0,0,1,9.432.96,25.293,25.293,0,0,1,7.194,2.579,17.863,17.863,0,0,1,4.5,3.586,18.554,18.554,0,0,1,3.105,4.815,25.558,25.558,0,0,1,1.8,5.995c.032.18.063.362.092.54h-2.213a35.031,35.031,0,0,1,.422,3.88h2.2c.05.884.076,1.8.076,2.709V60.618l-.506,1.232a6,6,0,0,0-.464,2.288v.845h.97a.97.97,0,0,1,.97.97v19.4a.971.971,0,0,1-.97.97h-.968a6.024,6.024,0,0,0,.463,2.163l.506,1.231V362.934c0,.75-.017,1.5-.05,2.224h-2.228a34.939,34.939,0,0,1-.422,3.88H189.2c-.053.363-.11.707-.166,1.025a25.566,25.566,0,0,1-1.8,6,18.54,18.54,0,0,1-3.105,4.815,17.863,17.863,0,0,1-4.5,3.586,25.266,25.266,0,0,1-7.194,2.579A50.057,50.057,0,0,1,163,388c-.41.007-1.374.029-2.913.066h-.1c-8.927.211-36.091.852-64.45.853C66.871,388.919,39.859,388.275,30.982,388.064ZM189.61,147.906V117.84h.457a1,1,0,0,1,1,1v28.072a1,1,0,0,1-1,1Z" transform="translate(2.51 -0.39)" fill="#fff"/>
      </g>
    </g>
    <g id="Group_11050" data-name="Group 11050" transform="translate(-8088 10103.055)">
      <path id="phone-shape-3" data-name="phone-shape" d="M190.067,117.84h-.457v30.066h.457a1,1,0,0,0,1-1V118.837a1,1,0,0,0-1-1" transform="translate(796.513 144.56)" fill="#fff"/>
    </g>
  </g>
</svg>
