<svg xmlns="http://www.w3.org/2000/svg" width="56.69" height="20.37" viewBox="0 0 56.69 20.37">
  <g id="Group_11050" data-name="Group 11050" transform="translate(7521.812 -10611)">
    <g id="Layer_2" data-name="Layer 2" transform="translate(-7521.812 10611)">
      <g id="Layer_1" data-name="Layer 1">
        <path id="Path_10819" data-name="Path 10819" d="M28.34,0C18.5,0,8.82.08,0,.18V7.83a4.14,4.14,0,0,1,1.4.55,5,5,0,0,1,2,3.89,9.73,9.73,0,0,0,1,3.33,8.63,8.63,0,0,0,1.94,2.55,8.44,8.44,0,0,0,2.71,1.64,9.41,9.41,0,0,0,3.28.58h32a9.39,9.39,0,0,0,3.27-.58,8.44,8.44,0,0,0,2.71-1.64,8.63,8.63,0,0,0,1.94-2.55,10,10,0,0,0,1-3.33,5,5,0,0,1,2-3.87,3.8,3.8,0,0,1,1.44-.56V.18C47.87.08,38.19,0,28.34,0Z" fill="#fff"/>
      </g>
    </g>
    <path id="camera-sound" d="M145.16,51.16a3.88,3.88,0,1,1,3.88,3.88A3.88,3.88,0,0,1,145.16,51.16Zm1.94,0a1.94,1.94,0,1,0,1.94-1.94,1.941,1.941,0,0,0-1.94,1.94Zm-16.488,2.42a2.425,2.425,0,1,1-.1-4.849H137.4a2.425,2.425,0,1,1,.1,4.849h-6.887Z" transform="translate(-7627.473 10571.479)" fill="#32327c"/>
  </g>
</svg>
