<svg id="Messenger_Icon" xmlns="http://www.w3.org/2000/svg" width="24" height="24" viewBox="0 0 24 24" fill="#fff">
  <g id="Messenger_Icon-2" data-name="Messenger_Icon" transform="translate(2.92 3)">
    <path id="Path_22781" data-name="Path 22781" d="M.08,8.731A8.684,8.684,0,0,1,9.078,0a8.686,8.686,0,0,1,9,8.731,8.686,8.686,0,0,1-9,8.731,9.828,9.828,0,0,1-2.6-.345A.731.731,0,0,0,6,17.155L4.2,17.943a.721.721,0,0,1-1.013-.64L3.136,15.7a.739.739,0,0,0-.236-.51A8.543,8.543,0,0,1,.08,8.731ZM6.318,7.085l-2.637,4.2a.423.423,0,0,0,.615.563L7.137,9.7a.528.528,0,0,1,.654,0l2.1,1.575a1.356,1.356,0,0,0,1.951-.362l2.641-4.2a.423.423,0,0,0-.615-.563L11.026,8.3a.513.513,0,0,1-.643,0l-2.1-1.575A1.36,1.36,0,0,0,6.318,7.085Z" transform="translate(0)"/>
  </g>
  <rect id="Rectangle_20660" data-name="Rectangle 20660" width="24" height="24" fill="none"/>
</svg>
